<?xml version="1.0" encoding="UTF-8"?>
<svg version="1.1" xmlns="http://www.w3.org/2000/svg" width="512" height="512">
<path d="M0 0 C1.45108658 0.00273422 1.45108658 0.00273422 2.93148804 0.00552368 C17.26440977 0.05095174 31.21023917 0.55983928 45.3125 3.3125 C46.65803955 3.55395752 46.65803955 3.55395752 48.03076172 3.80029297 C107.84088904 14.62287989 165.35495829 48.68064457 202.3125 97.3125 C202.72918945 97.85277832 203.14587891 98.39305664 203.57519531 98.94970703 C211.2584873 108.9447116 218.00092968 119.40459036 224.3125 130.3125 C224.70679199 130.98974121 225.10108398 131.66698242 225.50732422 132.36474609 C238.68961173 155.2833756 247.29510918 180.85822563 252.625 206.6875 C252.77243652 207.39817627 252.91987305 208.10885254 253.07177734 208.84106445 C256.05713787 224.48358366 256.6873098 240.11919606 256.625 256 C256.62226578 257.45108658 256.62226578 257.45108658 256.61947632 258.93148804 C256.57404826 273.26440977 256.06516072 287.21023917 253.3125 301.3125 C253.15152832 302.20952637 252.99055664 303.10655273 252.82470703 304.03076172 C242.00212011 363.84088904 207.94435543 421.35495829 159.3125 458.3125 C158.77222168 458.72918945 158.23194336 459.14587891 157.67529297 459.57519531 C147.6802884 467.2584873 137.22040964 474.00092968 126.3125 480.3125 C125.63525879 480.70679199 124.95801758 481.10108398 124.26025391 481.50732422 C101.3416244 494.68961173 75.76677437 503.29510918 49.9375 508.625 C49.22682373 508.77243652 48.51614746 508.91987305 47.78393555 509.07177734 C32.14141634 512.05713787 16.50580394 512.6873098 0.625 512.625 C-0.34239105 512.62317719 -1.3097821 512.62135437 -2.30648804 512.61947632 C-16.63940977 512.57404826 -30.58523917 512.06516072 -44.6875 509.3125 C-45.58452637 509.15152832 -46.48155273 508.99055664 -47.40576172 508.82470703 C-107.21588904 498.00212011 -164.72995829 463.94435543 -201.6875 415.3125 C-202.10418945 414.77222168 -202.52087891 414.23194336 -202.95019531 413.67529297 C-210.6334873 403.6802884 -217.37592968 393.22040964 -223.6875 382.3125 C-224.08179199 381.63525879 -224.47608398 380.95801758 -224.88232422 380.26025391 C-238.06461173 357.3416244 -246.67010918 331.76677437 -252 305.9375 C-252.14743652 305.22682373 -252.29487305 304.51614746 -252.44677734 303.78393555 C-255.43213787 288.14141634 -256.0623098 272.50580394 -256 256.625 C-255.99817719 255.65760895 -255.99635437 254.6902179 -255.99447632 253.69351196 C-255.94904826 239.36059023 -255.44016072 225.41476083 -252.6875 211.3125 C-252.44604248 209.96696045 -252.44604248 209.96696045 -252.19970703 208.59423828 C-241.37712011 148.78411096 -207.31935543 91.27004171 -158.6875 54.3125 C-158.14722168 53.89581055 -157.60694336 53.47912109 -157.05029297 53.04980469 C-147.0552884 45.3665127 -136.59540964 38.62407032 -125.6875 32.3125 C-125.01025879 31.91820801 -124.33301758 31.52391602 -123.63525391 31.11767578 C-100.7166244 17.93538827 -75.14177437 9.32989082 -49.3125 4 C-48.60182373 3.85256348 -47.89114746 3.70512695 -47.15893555 3.55322266 C-31.51641634 0.56786213 -15.88080394 -0.0623098 0 0 Z " fill="#FED45C" transform="translate(255.6875,-0.3125)"/>
<path d="M0 0 C-0.85677083 1.22395833 -1.71354167 2.44791667 -2.5703125 3.671875 C-3.13065186 4.47238281 -3.69099121 5.27289063 -4.26831055 6.09765625 C-5.51708403 7.88157146 -6.76594623 9.66542456 -8.01489258 11.44921875 C-11.3257939 16.17824871 -14.63522365 20.90829461 -17.94140625 25.640625 C-18.56966309 26.53942383 -19.19791992 27.43822266 -19.84521484 28.36425781 C-21.05311648 30.09239273 -22.26049199 31.82089552 -23.46728516 33.54980469 C-24.01819824 34.33774414 -24.56911133 35.12568359 -25.13671875 35.9375 C-25.61842529 36.62714844 -26.10013184 37.31679687 -26.59643555 38.02734375 C-27.05961182 38.67832031 -27.52278809 39.32929688 -28 40 C-28.4110498 40.71317383 -28.82209961 41.42634766 -29.24560547 42.16113281 C-31.84478898 44.88546488 -34.25150933 44.93238079 -37.93359375 45.484375 C-38.60793961 45.58969543 -39.28228546 45.69501587 -39.97706604 45.80352783 C-42.12845015 46.1351584 -44.28255485 46.44246009 -46.4375 46.75 C-47.8836952 46.97114661 -49.32966283 47.19378685 -50.77539062 47.41796875 C-61.17210036 49 -61.17210036 49 -66 49 C-66 50.65 -66 52.3 -66 54 C-65.10845215 53.80100098 -64.2169043 53.60200195 -63.29833984 53.39697266 C-52.50687477 51.33589757 -40.40260617 49.58729835 -30 54 C-21.6346451 59.72983759 -15.23010569 68.10451904 -8.65319824 75.71594238 C2.55878897 88.98807817 2.55878897 88.98807817 18.3984375 94.5234375 C27.00996222 94.98856393 35.60479606 93.87386171 44 92 C43.54898926 91.55120987 43.09797852 91.10241974 42.63330078 90.64002991 C37.95892709 85.98770168 33.28801536 81.33191885 28.61914062 76.67407227 C26.87394182 74.93391645 25.12784853 73.19465726 23.38085938 71.45629883 C20.87657281 68.96407941 18.3754728 66.46870129 15.875 63.97265625 C14.69381592 62.7992141 14.69381592 62.7992141 13.48876953 61.60206604 C12.76802246 60.8813945 12.04727539 60.16072296 11.3046875 59.41821289 C10.66515137 58.78089737 10.02561523 58.14358185 9.36669922 57.48695374 C8 56 8 56 8 55 C19.45068382 52.52592807 32.85987055 50.3527894 44 55 C52.19088662 60.54653743 58.43633241 68.71468821 64.8427124 76.14447021 C75.71887832 89.06607494 75.71887832 89.06607494 91.109375 94.45703125 C99.48217604 94.90977072 107.83822343 93.82511136 116 92 C115.54898926 91.55120987 115.09797852 91.10241974 114.63330078 90.64002991 C109.95892709 85.98770168 105.28801536 81.33191885 100.61914062 76.67407227 C98.87394182 74.93391645 97.12784853 73.19465726 95.38085938 71.45629883 C92.87657281 68.96407941 90.3754728 66.46870129 87.875 63.97265625 C87.08754395 63.19036148 86.30008789 62.40806671 85.48876953 61.60206604 C84.76802246 60.8813945 84.04727539 60.16072296 83.3046875 59.41821289 C82.66515137 58.78089737 82.02561523 58.14358185 81.36669922 57.48695374 C80 56 80 56 80 55 C91.44722445 52.52667552 104.86434871 50.34873133 116 55 C124.16831329 60.54763663 130.38852675 68.72149731 136.77532959 76.14447021 C147.76894666 89.13686404 147.76894666 89.13686404 163.33203125 94.45703125 C171.96055039 94.91145716 180.57546201 93.82023303 189 92 C188.54898926 91.55120987 188.09797852 91.10241974 187.63330078 90.64002991 C182.95892709 85.98770168 178.28801536 81.33191885 173.61914062 76.67407227 C171.87394182 74.93391645 170.12784853 73.19465726 168.38085938 71.45629883 C165.87657281 68.96407941 163.3754728 66.46870129 160.875 63.97265625 C160.08754395 63.19036148 159.30008789 62.40806671 158.48876953 61.60206604 C157.76802246 60.8813945 157.04727539 60.16072296 156.3046875 59.41821289 C155.66515137 58.78089737 155.02561523 58.14358185 154.36669922 57.48695374 C153 56 153 56 153 55 C168.76091933 51.5946446 184.84379456 51.25531424 198.99609375 59.95117188 C211.86848113 68.86196483 223.74752765 80.90992193 227.11227798 96.64023209 C229.44231184 109.78490975 229.58612143 123.20590811 229.61328125 136.51953125 C229.61532059 137.44821833 229.61735992 138.3769054 229.61946106 139.33373451 C229.6088795 155.50813573 228.8902181 171.64648016 228.3125 187.8125 C227.549375 217.904375 226.78625 247.99625 226 279 C120.4 279 14.8 279 -94 279 C-94 217.62 -94 156.24 -94 93 C-72.55 92.67 -51.1 92.34 -29 92 C-40.88 80.12 -52.76 68.24 -65 56 C-65.33 65.24 -65.66 74.48 -66 84 C-75.24 84 -84.48 84 -94 84 C-94 64.53 -94 45.06 -94 25 C-84.76 25 -75.52 25 -66 25 C-65.67 32.26 -65.34 39.52 -65 47 C-62.710625 43.65875 -62.710625 43.65875 -60.375 40.25 C-55.22257163 32.74242528 -50.00918828 25.27841957 -44.77294922 17.82910156 C-44.20979004 17.02698242 -43.64663086 16.22486328 -43.06640625 15.3984375 C-42.25647217 14.26293457 -42.25647217 14.26293457 -41.43017578 13.10449219 C-39.83219271 10.83329171 -39.83219271 10.83329171 -38.15234375 7.5390625 C-34.95818172 3.77099477 -31.73711971 3.67774655 -27 3 C-25.07589687 2.63637684 -23.15275052 2.26766322 -21.23046875 1.89453125 C-19.21655416 1.53158113 -17.20222364 1.17093189 -15.1875 0.8125 C-13.65319336 0.52729492 -13.65319336 0.52729492 -12.08789062 0.23632812 C-11.10369141 0.06166016 -10.11949219 -0.11300781 -9.10546875 -0.29296875 C-8.22012451 -0.4530542 -7.33478027 -0.61313965 -6.42260742 -0.77807617 C-3.98473952 -1.00139794 -2.31285561 -0.7487807 0 0 Z " fill="#242D3C" transform="translate(190,136)"/>
<path d="M0 0 C27.72 0 55.44 0 84 0 C84 24.42 84 48.84 84 74 C56.28 74 28.56 74 0 74 C0 49.58 0 25.16 0 0 Z " fill="#242D3C" transform="translate(214,312)"/>
<path d="M0 0 C87.12 0 174.24 0 264 0 C264 1.32 264 2.64 264 4 C221.76 4 179.52 4 136 4 C136 11.26 136 18.52 136 26 C178.24 26 220.48 26 264 26 C264 27.32 264 28.64 264 30 C235.62 30 207.24 30 178 30 C178 54.75 178 79.5 178 105 C206.38 105 234.76 105 264 105 C264 106.65 264 108.3 264 110 C176.88 110 89.76 110 0 110 C0 108.35 0 106.7 0 105 C28.38 105 56.76 105 86 105 C86 80.25 86 55.5 86 30 C57.62 30 29.24 30 0 30 C0 28.68 0 27.36 0 26 C43.23 26 86.46 26 131 26 C131 18.74 131 11.48 131 4 C87.77 4 44.54 4 0 4 C0 2.68 0 1.36 0 0 Z M90 31 C90 55.42 90 79.84 90 105 C117.72 105 145.44 105 174 105 C174 80.58 174 56.16 174 31 C146.28 31 118.56 31 90 31 Z " fill="#E4E5E7" transform="translate(124,281)"/>
<path d="M0 0 C12.21 0 24.42 0 37 0 C37 0.66 37 1.32 37 2 C37.5862616 2.26127182 38.17252319 2.52254364 38.77655029 2.79173279 C41.13317809 4.07237165 42.68477558 5.43732907 44.57519531 7.33227539 C45.25559875 8.0096022 45.9360022 8.68692902 46.63702393 9.38478088 C47.36008728 10.11502975 48.08315063 10.84527863 48.828125 11.59765625 C49.57713074 12.34712021 50.32613647 13.09658417 51.09783936 13.86875916 C52.67697478 15.45091212 54.25368257 17.0354913 55.828125 18.62231445 C58.24945888 21.06195479 60.67874961 23.49344835 63.109375 25.92382812 C64.64109884 27.46046532 66.17236495 28.99755894 67.703125 30.53515625 C68.43428528 31.26742935 69.16544556 31.99970245 69.91876221 32.75416565 C70.58655701 33.4283403 71.25435181 34.10251495 71.94238281 34.79711914 C72.53432434 35.39287247 73.12626587 35.98862579 73.73614502 36.60243225 C75 38 75 38 75 39 C62.37626139 41.72510351 46.84259973 44.40229023 35.25933838 37.32562256 C21.98293449 27.45042329 10.02981411 14.13234191 0 1 C0 0.67 0 0.34 0 0 Z " fill="#FAF9F8" transform="translate(160,190)"/>
<path d="M0 0 C11.88 0 23.76 0 36 0 C36 0.66 36 1.32 36 2 C36.5862616 2.26127182 37.17252319 2.52254364 37.77655029 2.79173279 C40.13317809 4.07237165 41.68477558 5.43732907 43.57519531 7.33227539 C44.25559875 8.0096022 44.9360022 8.68692902 45.63702393 9.38478088 C46.36008728 10.11502975 47.08315063 10.84527863 47.828125 11.59765625 C48.57713074 12.34712021 49.32613647 13.09658417 50.09783936 13.86875916 C51.67697478 15.45091212 53.25368257 17.0354913 54.828125 18.62231445 C57.24945888 21.06195479 59.67874961 23.49344835 62.109375 25.92382812 C63.64109884 27.46046532 65.17236495 28.99755894 66.703125 30.53515625 C67.43428528 31.26742935 68.16544556 31.99970245 68.91876221 32.75416565 C69.58655701 33.4283403 70.25435181 34.10251495 70.94238281 34.79711914 C71.53432434 35.39287247 72.12626587 35.98862579 72.73614502 36.60243225 C74 38 74 38 74 39 C61.42711718 41.62777294 45.86219917 44.3342102 34.30358887 37.37701416 C21.55545405 28.00280655 9.10992133 14.96839803 0 2 C0 1.34 0 0.68 0 0 Z " fill="#FAFAF8" transform="translate(306,190)"/>
<path d="M0 0 C12.31052172 -2.74778499 27.41344518 -5.30123236 38.71203613 1.67437744 C51.96466497 11.59973662 63.92688949 24.88490436 74 38 C74 38.33 74 38.66 74 39 C61.68947828 41.74778499 46.58655482 44.30123236 35.28796387 37.32562256 C22.03533503 27.40026338 10.07311051 14.11509564 0 1 C0 0.67 0 0.34 0 0 Z " fill="#FDFDFB" transform="translate(233,190)"/>
<path d="M0 0 C-3.29463776 6.47566731 -7.22020139 12.16986085 -11.55004883 17.97216797 C-15.63734885 23.46069109 -19.53451056 29.06323923 -23.38330078 34.72094727 C-23.81368652 35.35315186 -24.24407227 35.98535645 -24.6875 36.63671875 C-25.06261719 37.19061279 -25.43773437 37.74450684 -25.82421875 38.31518555 C-26.21222656 38.87117432 -26.60023438 39.42716309 -27 40 C-27.59167969 41.04136108 -27.59167969 41.04136108 -28.1953125 42.10375977 C-30.77863704 44.8181377 -33.6316001 45.1205541 -37.1875 45.703125 C-38.23587036 45.89439972 -38.23587036 45.89439972 -39.30541992 46.08953857 C-41.53448136 46.49201146 -43.76685564 46.87091388 -46 47.25 C-47.50286831 47.51936373 -49.00547684 47.7901812 -50.5078125 48.0625 C-61.34909783 50 -61.34909783 50 -65 50 C-63.368806 44.86325863 -60.2355066 40.95834588 -57.0625 36.6875 C-55.88652086 35.08312963 -54.7120712 33.47763719 -53.5390625 31.87109375 C-52.94770508 31.06140137 -52.35634766 30.25170898 -51.74707031 29.41748047 C-49.08561177 25.73472998 -46.50377144 21.99947724 -43.9375 18.25 C-43.49736572 17.60764404 -43.05723145 16.96528809 -42.60375977 16.3034668 C-41.97812134 15.38754761 -41.97812134 15.38754761 -41.33984375 14.453125 C-40.93072754 13.87256348 -40.52161133 13.29200195 -40.10009766 12.69384766 C-38.81257842 10.80455039 -38.81257842 10.80455039 -37.51953125 7.7265625 C-33.30093 3.16131649 -27.70600024 3.04518628 -21.75 2.125 C-20.54730469 1.91359375 -19.34460938 1.7021875 -18.10546875 1.484375 C-12.00109936 0.45246184 -6.18898206 -0.26172312 0 0 Z " fill="#FDFCFB" transform="translate(368,104)"/>
<path d="M0 0 C-6.41973189 9.43738094 -12.85980551 18.85926734 -19.4375 28.1875 C-19.90833008 28.85644287 -20.37916016 29.52538574 -20.86425781 30.21459961 C-21.77879553 31.507394 -22.70676234 32.79080167 -23.6484375 34.06396484 C-25.04844983 35.98674011 -25.04844983 35.98674011 -26.1484375 38.15869141 C-28.36017513 41.93707652 -30.00494402 43.66072324 -34.22143555 45.09838867 C-38.18394986 45.91112696 -42.11474244 46.49694816 -46.125 47 C-47.50957058 47.20131546 -48.89369603 47.40571775 -50.27734375 47.61328125 C-55.2009122 48.33227808 -60.01463744 49 -65 49 C-63.39292103 44.12204266 -60.60418645 40.36384491 -57.625 36.25 C-56.54406339 34.73973178 -55.46334068 33.22931045 -54.3828125 31.71875 C-53.82625977 30.94402344 -53.26970703 30.16929687 -52.69628906 29.37109375 C-51.01167409 27.01631819 -49.34281959 24.65123787 -47.6796875 22.28125 C-47.14649902 21.52166992 -46.61331055 20.76208984 -46.06396484 19.97949219 C-45.04539675 18.5274841 -44.02746071 17.07503237 -43.01025391 15.62207031 C-42.09132436 14.31637311 -41.16396654 13.0165517 -40.22680664 11.72387695 C-39.16872265 10.2370847 -38.18411077 8.69850492 -37.21484375 7.15234375 C-33.92273697 3.95313593 -30.49161321 3.57168964 -26.0625 2.8125 C-25.21945312 2.65305908 -24.37640625 2.49361816 -23.5078125 2.3293457 C-21.00858384 1.86406883 -18.50572188 1.42873762 -16 1 C-14.65494623 0.75782184 -13.30989399 0.51563524 -11.96484375 0.2734375 C-3.48284405 -1.16094802 -3.48284405 -1.16094802 0 0 Z " fill="#FDFCFC" transform="translate(297,117)"/>
<path d="M0 0 C-0.85677083 1.22395833 -1.71354167 2.44791667 -2.5703125 3.671875 C-3.13065186 4.47238281 -3.69099121 5.27289063 -4.26831055 6.09765625 C-5.51708403 7.88157146 -6.76594623 9.66542456 -8.01489258 11.44921875 C-11.3257939 16.17824871 -14.63522365 20.90829461 -17.94140625 25.640625 C-18.8837915 26.98882324 -18.8837915 26.98882324 -19.84521484 28.36425781 C-21.05311648 30.09239273 -22.26049199 31.82089552 -23.46728516 33.54980469 C-24.01819824 34.33774414 -24.56911133 35.12568359 -25.13671875 35.9375 C-25.61842529 36.62714844 -26.10013184 37.31679687 -26.59643555 38.02734375 C-27.05961182 38.67832031 -27.52278809 39.32929688 -28 40 C-28.41032471 40.71317383 -28.82064941 41.42634766 -29.2434082 42.16113281 C-31.85136698 44.89124337 -34.27692415 44.93370745 -37.96875 45.484375 C-38.64546753 45.58969543 -39.32218506 45.69501587 -40.01940918 45.80352783 C-42.17751803 46.1351761 -44.33832359 46.44256372 -46.5 46.75 C-47.95466006 46.97112905 -49.40909132 47.19376886 -50.86328125 47.41796875 C-61.28695913 49 -61.28695913 49 -65 49 C-63.6517939 45.27739092 -61.9719548 42.27361607 -59.69140625 39.04296875 C-59.03213135 38.10219482 -58.37285645 37.1614209 -57.69360352 36.19213867 C-56.99033936 35.20060791 -56.2870752 34.20907715 -55.5625 33.1875 C-49.52839275 24.70104964 -49.52839275 24.70104964 -43.8125 16 C-43.10565063 14.89555542 -43.10565063 14.89555542 -42.38452148 13.76879883 C-41.53132079 12.42557889 -40.69836695 11.06917947 -39.89086914 9.69799805 C-37.6723182 6.25820089 -35.82951934 4.62563908 -31.921875 3.71875 C-30.2839761 3.46118883 -28.64295987 3.22300996 -27 3 C-25.07566011 2.63763189 -23.15252141 2.2688416 -21.23046875 1.89453125 C-19.21655416 1.53158113 -17.20222364 1.17093189 -15.1875 0.8125 C-13.65319336 0.52729492 -13.65319336 0.52729492 -12.08789062 0.23632812 C-11.10369141 0.06166016 -10.11949219 -0.11300781 -9.10546875 -0.29296875 C-8.22012451 -0.4530542 -7.33478027 -0.61313965 -6.42260742 -0.77807617 C-3.98473952 -1.00139794 -2.31285561 -0.7487807 0 0 Z " fill="#27303E" transform="translate(190,136)"/>
<path d="M0 0 C-1.51451552 4.54354657 -4.0702698 8.04401255 -6.9375 11.8125 C-11.48861544 17.89657487 -15.86135122 24.07557967 -20.11889648 30.3684082 C-20.96608586 31.61543853 -21.8223455 32.85635701 -22.68774414 34.09082031 C-23.60451284 35.42461216 -24.48120583 36.78644503 -25.32592773 38.16699219 C-27.89698588 42.1049138 -29.79601035 44.36434204 -34.43359375 45.5859375 C-36.09568459 45.88385318 -37.76456457 46.14568201 -39.4375 46.375 C-40.74799316 46.59494629 -40.74799316 46.59494629 -42.08496094 46.81933594 C-44.71917371 47.25084325 -47.35620546 47.63226356 -50 48 C-50.78971191 48.11569336 -51.57942383 48.23138672 -52.39306641 48.35058594 C-56.58874639 48.9638777 -60.78722242 49.51489228 -65 50 C-63.67229076 47.22121713 -62.19640659 44.69353891 -60.453125 42.15625 C-59.94434814 41.41366943 -59.43557129 40.67108887 -58.91137695 39.90600586 C-58.36312256 39.11202393 -57.81486816 38.31804199 -57.25 37.5 C-56.6830542 36.6757251 -56.1161084 35.8514502 -55.53198242 35.00219727 C-53.6921653 32.33188443 -51.84704687 29.66531668 -50 27 C-49.03537842 25.6075708 -49.03537842 25.6075708 -48.05126953 24.18701172 C-46.14181377 21.43474194 -44.22822514 18.68540893 -42.3125 15.9375 C-41.71276367 15.07511719 -41.11302734 14.21273437 -40.49511719 13.32421875 C-39.93598633 12.525 -39.37685547 11.72578125 -38.80078125 10.90234375 C-38.06081909 9.84261353 -38.06081909 9.84261353 -37.3059082 8.76147461 C-34.41796066 4.86606584 -32.35283349 4.51126752 -27.63671875 3.7109375 C-26.35732422 3.49179688 -25.07792969 3.27265625 -23.75976562 3.046875 C-22.75683472 2.88155273 -22.75683472 2.88155273 -21.73364258 2.71289062 C-19.7042039 2.37775841 -17.67729417 2.02979126 -15.65039062 1.6796875 C-4.81814905 -0.14835528 -4.81814905 -0.14835528 0 0 Z " fill="#FDFCFC" transform="translate(225,129)"/>
<path d="M0 0 C-1.51451552 4.54354657 -4.0702698 8.04401255 -6.9375 11.8125 C-11.02246505 17.2734103 -14.97108283 22.80271405 -18.8125 28.4375 C-19.27914062 29.11167969 -19.74578125 29.78585938 -20.2265625 30.48046875 C-22.09419905 33.17995491 -23.91682283 35.86083039 -25.6015625 38.6796875 C-28.26705457 42.9351222 -30.43118859 44.48965138 -35.3125 45.8125 C-37.5356211 46.24098642 -39.76591289 46.63295392 -42 47 C-43.44985765 47.27530215 -44.89904862 47.55413186 -46.34765625 47.8359375 C-58.83278306 50.20299617 -58.83278306 50.20299617 -65 50 C-63.67229076 47.22121713 -62.19640659 44.69353891 -60.453125 42.15625 C-59.94458984 41.41366943 -59.43605469 40.67108887 -58.91210938 39.90600586 C-58.08936523 38.71503296 -58.08936523 38.71503296 -57.25 37.5 C-56.68087891 36.6757251 -56.11175781 35.8514502 -55.52539062 35.00219727 C-54.31269904 33.24713367 -53.09913131 31.4926752 -51.88476562 29.73876953 C-49.97325139 26.96113135 -48.08665026 24.1677699 -46.203125 21.37109375 C-44.96914388 19.55962746 -43.73477961 17.7484221 -42.5 15.9375 C-41.92540039 15.07511719 -41.35080078 14.21273437 -40.75878906 13.32421875 C-40.20932617 12.525 -39.65986328 11.72578125 -39.09375 10.90234375 C-38.61615234 10.19585693 -38.13855469 9.48937012 -37.64648438 8.76147461 C-34.22954049 5.10589185 -29.49531767 4.58641948 -24.74609375 3.7109375 C-23.56208984 3.49179688 -22.37808594 3.27265625 -21.15820312 3.046875 C-19.93037109 2.82515625 -18.70253906 2.6034375 -17.4375 2.375 C-15.58995117 2.03082031 -15.58995117 2.03082031 -13.70507812 1.6796875 C-4.53178478 0 -4.53178478 0 0 0 Z " fill="#27303E" transform="translate(404,97)"/>
<path d="M0 0 C-2.98022249 5.4649381 -6.37190924 10.43075731 -10.0625 15.4375 C-16.91227752 24.81996836 -23.55593622 34.33390434 -30 44 C-32.67041016 44.78369141 -32.67041016 44.78369141 -36.0390625 45.3515625 C-37.25980469 45.56296875 -38.48054688 45.774375 -39.73828125 45.9921875 C-41.02089844 46.20101562 -42.30351562 46.40984375 -43.625 46.625 C-44.88441406 46.8415625 -46.14382812 47.058125 -47.44140625 47.28125 C-53.61394015 48.33051599 -59.77859685 49.29480317 -66 50 C-61.52490854 42.70434034 -56.77469366 35.63598705 -51.74145508 28.71459961 C-49.03435891 24.97776969 -46.51605521 21.24303582 -44.2265625 17.234375 C-37.10662576 5.20062599 -37.10662576 5.20062599 -30.3359375 3.33984375 C-26.33855906 2.58617905 -22.37444643 2.31675824 -18.31469727 2.171875 C-15.12884163 1.93531321 -12.12826835 1.21591282 -9.03808594 0.42993164 C-5.9764474 -0.21591712 -3.11798043 -0.13268002 0 0 Z " fill="#272F3E" transform="translate(261,123)"/>
<path d="M0 0 C0 3.6962603 -0.96390505 4.73763137 -3.078125 7.7265625 C-3.73925293 8.66862549 -4.40038086 9.61068848 -5.08154297 10.58129883 C-5.79713379 11.58572021 -6.51272461 12.5901416 -7.25 13.625 C-7.97203613 14.64940186 -8.69407227 15.67380371 -9.43798828 16.72924805 C-10.91244449 18.81977095 -12.38982694 20.908233 -13.87011719 22.99462891 C-15.81102348 25.73334468 -17.74050282 28.47955436 -19.6640625 31.23046875 C-20.73416058 32.75796274 -21.80445928 34.2853162 -22.875 35.8125 C-23.36774414 36.51648926 -23.86048828 37.22047852 -24.36816406 37.94580078 C-28.32977491 43.56441801 -30.42144716 45.32681283 -37.08984375 46.54296875 C-37.79017227 46.6756868 -38.49050079 46.80840485 -39.21205139 46.94514465 C-40.69330134 47.22371091 -42.1752991 47.49832543 -43.65795898 47.76928711 C-45.92728427 48.18562579 -48.19306991 48.61825974 -50.45898438 49.05273438 C-51.89825381 49.3212988 -53.3377017 49.58890895 -54.77734375 49.85546875 C-55.79464821 50.05066353 -55.79464821 50.05066353 -56.83250427 50.24980164 C-60.04455741 50.82608588 -61.8464483 51.0511839 -65 50 C-57.04143409 38.2402986 -48.93021974 26.61230528 -40.5546875 15.14550781 C-39.02637475 13.11020443 -39.02637475 13.11020443 -37.98664856 11.26585388 C-35.68714391 7.55795844 -34.55092474 6.20094952 -30.3112793 4.65454102 C-28.90395072 4.40714476 -27.49074873 4.19158 -26.07421875 4.00390625 C-25.32662796 3.88063461 -24.57903717 3.75736298 -23.80879211 3.63035583 C-21.43849138 3.24609791 -19.06432125 2.90383533 -16.6875 2.5625 C-15.07182949 2.30809303 -13.4565859 2.05095887 -11.84179688 1.79101562 C-7.89877045 1.16234982 -3.95173711 0.57123995 0 0 Z " fill="#272F3E" transform="translate(332,109)"/>
<path d="M0 0 C-1.51452466 4.54357399 -4.07033465 8.04394159 -6.9375 11.8125 C-11.51155226 17.92955087 -15.90866702 24.14267164 -20.20678711 30.45629883 C-23.08272949 34.6792638 -25.96128205 38.89190743 -29 43 C-29.33 43 -29.66 43 -30 43 C-30 35.41 -30 27.82 -30 20 C-39.57 20 -49.14 20 -59 20 C-59 27.59 -59 35.18 -59 43 C-59.33 43 -59.66 43 -60 43 C-60.6505237 39.35498776 -61.29454906 35.708855 -61.9375 32.0625 C-62.11990234 31.04091797 -62.30230469 30.01933594 -62.49023438 28.96679688 C-62.75610352 27.45375977 -62.75610352 27.45375977 -63.02734375 25.91015625 C-63.18968506 24.99371338 -63.35202637 24.07727051 -63.51928711 23.13305664 C-64.13794556 19.10093686 -64.57486914 15.05647603 -65 11 C-58.11770049 9.75249006 -51.23491671 8.50767826 -44.35180664 7.26464844 C-42.01543405 6.84240272 -39.67916867 6.41956326 -37.34301758 5.99609375 C-4.25843897 0 -4.25843897 0 0 0 Z " fill="#FDFCFA" transform="translate(154,141)"/>
<path d="M0 0 C7.87700499 6.75171856 7.87700499 6.75171856 10.64038086 9.51098633 C11.26049545 10.12794876 11.88061005 10.74491119 12.51951599 11.38056946 C13.16147415 12.02455185 13.80343231 12.66853424 14.46484375 13.33203125 C15.48210289 14.3478553 15.48210289 14.3478553 16.51991272 15.38420105 C17.93873833 16.80235102 19.35632147 18.22174506 20.77270508 19.64233398 C22.95214752 21.82718386 25.13694282 24.00658031 27.32226562 26.18554688 C28.7034462 27.56738736 30.08431702 28.94953754 31.46484375 30.33203125 C32.12097153 30.9861348 32.7770993 31.64023834 33.45310974 32.31416321 C38 36.88501892 38 36.88501892 38 38 C16.22 38 -5.56 38 -28 38 C-28 35.03 -28 32.06 -28 29 C-18.76 29 -9.52 29 0 29 C0 19.43 0 9.86 0 0 Z " fill="#FCFCFC" transform="translate(124,191)"/>
<path d="M0 0 C29.04 0 58.08 0 88 0 C88 3.3 88 6.6 88 10 C58.96 10 29.92 10 0 10 C0 6.7 0 3.4 0 0 Z " fill="#FEFEFE" transform="translate(124,257)"/>
<path d="M0 0 C2.13525939 3.20288909 2.59282395 5.20640324 3.2890625 8.953125 C3.50820313 10.13003906 3.72734375 11.30695313 3.953125 12.51953125 C4.17484375 13.75058594 4.3965625 14.98164062 4.625 16.25 C4.96917969 18.07337891 4.96917969 18.07337891 5.3203125 19.93359375 C6.3745766 25.68811862 7.3291178 31.14516761 7 37 C2.87647343 37.82009651 -1.24905444 38.62966923 -5.375 39.4375 C-6.53128906 39.66759766 -7.68757813 39.89769531 -8.87890625 40.13476562 C-15.5757806 41.44008859 -22.19427524 42.48747972 -29 43 C-27.64442377 39.25417471 -25.94412937 36.22793758 -23.65625 32.97265625 C-22.99117432 32.02148926 -22.32609863 31.07032227 -21.64086914 30.09033203 C-20.93438232 29.09114746 -20.22789551 28.09196289 -19.5 27.0625 C-18.42383423 25.52891846 -18.42383423 25.52891846 -17.32592773 23.96435547 C-15.22323742 20.97198365 -13.11317748 17.98497242 -11 15 C-10.4342627 14.19965332 -9.86852539 13.39930664 -9.28564453 12.57470703 C-1.32438754 1.32438754 -1.32438754 1.32438754 0 0 Z " fill="#FDFCFB" transform="translate(404,98)"/>
<path d="M0 0 C12.21 0 24.42 0 37 0 C37 12.21 37 24.42 37 37 C29.12299428 30.24828081 29.12299428 30.24828081 26.45141602 27.58081055 C25.85132217 26.98386887 25.25122833 26.38692719 24.63294983 25.77189636 C24.01286545 25.14978775 23.39278107 24.52767914 22.75390625 23.88671875 C22.09792953 23.23169876 21.44195282 22.57667877 20.76609802 21.90180969 C19.39435098 20.53073805 18.0238454 19.15842327 16.65454102 17.78491211 C14.54752743 15.67248899 12.43515974 13.56552392 10.32226562 11.45898438 C8.98665795 10.12271682 7.65136001 8.78613959 6.31640625 7.44921875 C5.68215225 6.81698898 5.04789825 6.18475922 4.39442444 5.53337097 C0 1.11498244 0 1.11498244 0 0 Z " fill="#FEFEFE" transform="translate(379,191)"/>
<path d="M0 0 C1.65 0.33 3.3 0.66 5 1 C4.67 2.65 4.34 4.3 4 6 C2.35 5.67 0.7 5.34 -1 5 C-0.67 3.35 -0.34 1.7 0 0 Z " fill="#EDEDEF" transform="translate(108,202)"/>
<path d="M0 0 C1.67542976 0.28604898 3.34385343 0.61781233 5 1 C4.67 2.32 4.34 3.64 4 5 C2.68 5.33 1.36 5.66 0 6 C-0.38218767 4.34385343 -0.71395102 2.67542976 -1 1 C-0.67 0.67 -0.34 0.34 0 0 Z " fill="#F2F3F4" transform="translate(108,173)"/>
</svg>
